<svg data-v-0dd9719b="" version="1.0" xmlns="http://www.w3.org/2000/svg" xmlns:xlink="http://www.w3.org/1999/xlink" width="100%" height="100%" viewBox="0 0 340.000000 250.000000" preserveAspectRatio="xMidYMid meet" color-interpolation-filters="sRGB" style="margin: auto;"> <rect data-v-0dd9719b="" x="0" y="0" width="100%" height="100%" fill="#fff" fill-opacity="1" class="background"></rect> <rect data-v-0dd9719b="" x="0" y="0" width="100%" height="100%" fill="url(#watermark)" fill-opacity="1" class="watermarklayer"></rect> <g data-v-0dd9719b="" fill="#333333" class="icon-text-wrapper icon-svg-group iconsvg" transform="translate(48.26499938964844,99.74875068664551)"><g class="iconsvg-imagesvg" transform="translate(0,0)"><g><rect fill="#333333" fill-opacity="0" stroke-width="2" x="0" y="0" width="60" height="50.50249987374375" class="image-rect"></rect> <svg x="0" y="0" width="60" height="50.50249987374375" filtersec="colorsb4338388891" class="image-svg-svg primary" style="overflow: visible;"><svg xmlns="http://www.w3.org/2000/svg" viewBox="0 -0.00006458814459620044 117.51065063476562 98.91006469726562"><defs><linearGradient id="a9cea837b-e073-41ca-8ecd-77af4e8a4a3e" x1="50.37" y1="105.49" x2="81.59" y2="54.22" gradientUnits="userSpaceOnUse"><stop offset="0" stop-color="#e97100"></stop><stop offset="1" stop-color="#f6cb00"></stop></linearGradient><linearGradient id="b6a84f500-7601-4439-a926-cd8141f3c0fd" x1="20.23" y1="87.14" x2="51.45" y2="35.87" gradientUnits="userSpaceOnUse"><stop offset="0" stop-color="#e97100"></stop><stop offset="1" stop-color="#f6cb00"></stop></linearGradient><linearGradient id="c73ff9834-8b77-4f4a-bfc9-538f8640cbf8" x1="80.14" y1="123.62" x2="111.36" y2="72.35" gradientUnits="userSpaceOnUse"><stop offset="0" stop-color="#e97100"></stop><stop offset="1" stop-color="#f6cb00"></stop></linearGradient><linearGradient id="dc1555fd3-0d07-4ca4-8acc-eb218a1a7b23" x1="91.68" y1="36.01" x2="106.47" y2="12.68" gradientTransform="rotate(76.72 98.904 24.613)" gradientUnits="userSpaceOnUse"><stop offset="0" stop-color="#e00"></stop><stop offset="1" stop-color="#f58e00"></stop></linearGradient></defs><g><g><path d="M71.33 98.91h-30.9L70.09 45.3a13.47 13.47 0 0 1 11.8-6.95H82a13.48 13.48 0 0 1 11.8 20z" fill="url(#a9cea837b-e073-41ca-8ecd-77af4e8a4a3e)"></path><path d="M30.9 98.91H0l51.25-92A13.47 13.47 0 0 1 63 0a13.48 13.48 0 0 1 11.84 20z" fill="url(#b6a84f500-7601-4439-a926-cd8141f3c0fd)"></path><path d="M111.17 98.91h-30.9l12-21.47a13.48 13.48 0 0 1 11.76-6.89 13.48 13.48 0 0 1 11.76 20.07z" fill="url(#c73ff9834-8b77-4f4a-bfc9-538f8640cbf8)"></path><circle cx="98.91" cy="24.62" r="13.73" transform="rotate(-76.72 98.905 24.614)" fill="url(#dc1555fd3-0d07-4ca4-8acc-eb218a1a7b23)"></circle></g></g></svg></svg> <!----></g></g> <g transform="translate(67,11.976248741149902)"><g data-gra="path-name" fill-rule="" class="tp-name iconsvg-namesvg"><g transform="scale(1)"><g><path d="M10-26.63L26.76-26.63 29.99-2.55 22.68-2.55 21.82-9.1 11.61-9.1 8.76-2.55 1.83-2.55 11.23-25.44 10-26.63ZM20.21-22.55L17.36-22.55 13.27-13.19 21.44-13.19 20.21-22.55ZM37.27-20.51L37.61-22.97 36.8-24.21 45.78-24.21 45.22-20.51 50.29-20.51 49.44-16.42 44.71-16.42 43.31-6.64 47.39-6.64 46.58-2.55 37.61-2.55Q36.37-2.55 35.61-3.36 34.84-4.17 35.14-5.4L35.14-5.4 36.8-16.42 33.52-16.42 33.95-20.51 37.27-20.51ZM54.88-29.1L64.28-29.1 61.01-6.64 63.86-2.55 55.31-2.55Q54.07-2.55 53.46-3.36 52.84-4.17 52.84-5.4L52.84-5.4 56.11-27.87 54.88-29.1ZM81.17-13.19L81.81-16.42 77.47-16.42 77.09-14.81 68.92-14.81 70.15-20.51 90.15-20.51 87.68-4.59 89.34-2.55 70.15-2.55Q68.92-2.55 68.3-3.36 67.69-4.17 67.69-5.4L67.69-5.4 68.92-13.19 81.17-13.19ZM80.36-9.1L76.28-9.1 75.85-6.64 79.94-6.64 80.36-9.1ZM94.57-20.51L117.04-20.51 114.57-2.55 106.4-2.55 108.44-16.42 103.55-16.42 101.51-2.55 93.34-2.55 95.81-19.31 94.57-20.51ZM124.18-20.51L124.52-22.97 123.72-24.21 132.69-24.21 132.14-20.51 137.2-20.51 136.35-16.42 131.63-16.42 130.22-6.64 134.31-6.64 133.5-2.55 124.52-2.55Q123.29-2.55 122.52-3.36 121.76-4.17 122.06-5.4L122.06-5.4 123.72-16.42 120.44-16.42 120.87-20.51 124.18-20.51ZM151.2-26.63L150.39-21.74 142.6-21.74 143.03-26.63 151.2-26.63ZM140.99-20.51L150.39-20.51 147.92-2.55 139.75-2.55 142.22-19.31 140.99-20.51ZM178.3-20.51L177.87-16.42 164.81-16.42 163.2-6.64 174.6-6.64 176.64-8.25 175.83-2.55 154.6-2.55 157.45-20.51 178.3-20.51Z" transform="translate(-1.8300000429153442, 29.100000381469727)"></path></g> <!----> <!----> <!----> <!----> <!----> <!----> <!----></g></g> <!----></g></g><defs v-gra="od"></defs></svg>